<?xml version="1.0" standalone="no"?>
<!DOCTYPE svg PUBLIC "-//W3C//DTD SVG 20010904//EN"
 "http://www.w3.org/TR/2001/REC-SVG-20010904/DTD/svg10.dtd">
<svg version="1.0" xmlns="http://www.w3.org/2000/svg"
 width="3917.000000pt" height="1037.000000pt" viewBox="0 0 3917.000000 1037.000000"
 preserveAspectRatio="xMidYMid meet">

<g transform="translate(0.000000,1037.000000) scale(0.100000,-0.100000)"
fill="#000000" stroke="none">
<path d="M4330 8680 c0 -17 -7 -20 -45 -20 l-45 0 0 -1685 c0 -927 2 -1685 4
-1685 3 0 20 21 38 46 27 38 34 43 43 30 10 -13 25 2 91 86 43 55 95 119 114
143 19 23 71 88 115 145 135 175 133 173 180 168 29 -4 64 -21 119 -59 205
-144 304 -212 341 -236 22 -14 53 -37 68 -49 16 -13 33 -24 38 -24 5 0 9 23 9
50 0 28 3 50 7 50 3 0 21 -11 40 -26 l33 -25 0 188 c0 103 3 803 7 1556 l6
1367 -581 0 c-575 0 -582 0 -582 -20z"/>
<path d="M6068 7968 c-2 -19 -10 -24 -45 -26 l-43 -3 0 -1404 0 -1404 53 -39
c28 -21 94 -67 145 -103 l94 -64 29 33 c19 21 36 31 47 28 12 -3 28 9 52 41
19 25 57 73 83 107 26 34 73 95 104 136 31 41 59 77 63 80 6 5 71 88 175 225
22 28 76 98 120 155 98 126 142 183 223 289 l62 83 0 944 0 944 -579 0 -580 0
-3 -22z"/>
<path d="M2588 7118 c-2 -19 -10 -24 -45 -26 l-43 -3 0 -1010 c0 -555 2 -1009
4 -1009 3 0 20 21 38 46 28 39 34 43 44 30 12 -17 11 -18 125 143 30 42 32 43
72 37 23 -4 49 -12 58 -19 10 -7 52 -38 95 -69 44 -32 220 -161 393 -287 173
-127 318 -228 323 -225 4 3 8 25 8 50 0 24 3 44 6 44 3 0 21 -12 40 -26 l34
-26 2 1086 c2 597 3 1130 3 1184 l0 97 -577 3 -577 2 -3 -22z"/>
<path d="M8675 7064 c-44 -8 -339 -55 -655 -104 -316 -50 -587 -93 -602 -96
-21 -4 -28 -11 -28 -30 0 -17 -6 -24 -19 -24 -10 0 -24 -6 -31 -14 -13 -16 -1
-26 210 -183 64 -48 106 -86 108 -99 2 -12 -27 -58 -78 -124 -45 -58 -100
-130 -123 -160 -23 -30 -80 -104 -127 -164 -83 -106 -178 -229 -432 -557 -70
-90 -164 -212 -210 -271 -46 -58 -135 -174 -198 -257 -63 -82 -122 -150 -130
-150 -8 0 -154 97 -325 216 -170 119 -333 233 -362 252 -28 20 -215 150 -414
289 l-363 252 -36 -35 c-20 -19 -41 -35 -47 -35 -13 0 -69 -62 -158 -176 -65
-83 -132 -169 -410 -519 -61 -77 -169 -214 -240 -304 -186 -235 -169 -217
-197 -204 -13 6 -224 157 -468 335 -245 179 -455 331 -468 339 -22 13 -25 12
-50 -18 -15 -17 -39 -36 -53 -41 -16 -6 -65 -65 -132 -159 -58 -81 -218 -301
-353 -488 -136 -187 -295 -406 -353 -487 -58 -80 -153 -211 -210 -290 -203
-280 -315 -434 -379 -523 -36 -49 -89 -121 -117 -160 -28 -38 -63 -87 -78
-107 -30 -41 -35 -73 -11 -82 9 -3 262 -6 564 -6 461 0 549 2 559 14 7 8 30
17 51 21 40 7 44 11 220 244 19 26 73 96 120 155 47 60 103 132 125 161 183
240 231 298 246 293 5 -2 62 -40 126 -85 65 -45 269 -186 453 -314 184 -128
344 -234 355 -236 12 -3 28 4 39 16 13 14 26 18 45 15 25 -5 36 5 127 121 54
70 108 139 119 154 11 15 65 85 120 155 55 71 116 149 135 175 19 26 73 96
120 155 47 60 94 120 105 135 64 87 255 329 268 339 16 14 4 22 507 -333 124
-87 308 -217 410 -289 102 -71 264 -185 360 -253 96 -68 184 -123 196 -123 12
0 27 7 34 15 7 8 24 15 39 15 14 0 31 4 36 8 6 4 58 68 115 142 58 74 123 158
145 186 22 27 66 84 97 125 32 41 96 124 144 184 47 61 120 155 162 209 42 54
99 126 125 160 26 34 60 77 75 96 53 70 167 216 217 280 103 131 147 188 243
311 99 129 354 458 471 608 85 109 131 161 142 161 5 0 75 -45 156 -100 80
-56 153 -99 162 -98 10 2 16 14 16 31 -1 32 10 34 50 7 49 -32 59 -27 51 28
-3 26 -27 205 -51 397 -25 193 -52 391 -60 440 -12 73 -65 457 -65 471 0 7
-53 2 -135 -12z"/>
<path d="M18557 6590 c-522 -47 -856 -280 -969 -676 -29 -104 -32 -315 -5
-414 62 -228 168 -353 662 -780 143 -124 277 -243 298 -265 104 -106 103 -211
-2 -264 -134 -69 -389 -65 -667 9 -102 27 -335 114 -411 154 -48 24 -51 21
-42 -36 15 -92 48 -436 59 -613 6 -93 13 -184 16 -201 l4 -31 123 -22 c342
-61 569 -85 822 -85 357 0 611 58 821 189 157 98 247 193 328 347 70 132 88
201 93 363 5 123 3 151 -16 220 -39 142 -136 291 -290 446 -47 47 -196 173
-331 281 -398 317 -471 413 -386 506 54 61 161 92 313 92 189 0 414 -50 634
-140 40 -17 74 -28 77 -25 3 3 -5 105 -16 227 -27 277 -42 473 -42 560 0 55
-3 68 -17 72 -39 12 -316 56 -448 70 -177 20 -480 27 -608 16z"/>
<path d="M9780 6530 c0 -5 -16 -247 -35 -537 -56 -831 -188 -2292 -230 -2540
l-6 -33 454 0 455 0 6 168 c14 346 81 1511 92 1572 8 48 71 -207 259 -1045 80
-357 149 -660 152 -672 l5 -23 452 0 451 0 159 483 c88 265 221 673 297 907
135 414 138 423 139 359 1 -183 -52 -1509 -66 -1676 l-7 -73 474 0 474 0 1
488 c2 754 47 2226 80 2570 l6 62 -680 0 -679 0 -28 -102 c-42 -161 -88 -298
-215 -643 -115 -312 -219 -621 -276 -817 -15 -54 -29 -96 -31 -95 -1 2 -25
113 -53 248 -27 134 -77 348 -110 474 -141 538 -160 618 -184 767 -14 86 -26
159 -26 162 0 3 -299 6 -665 6 -433 0 -665 -3 -665 -10z"/>
<path d="M29506 6163 c-12 -674 -34 -1272 -71 -1933 -13 -228 -24 -350 -62
-747 l-6 -63 505 0 505 0 6 518 c4 284 10 552 14 595 l6 78 47 -88 c25 -48 97
-178 159 -288 137 -241 264 -481 356 -672 l68 -143 548 0 548 0 -263 438
c-313 519 -506 851 -506 868 0 15 158 227 528 709 l262 340 -553 3 c-303 1
-557 0 -563 -2 -6 -2 -68 -93 -139 -202 -156 -242 -476 -707 -482 -701 -9 10
52 1062 85 1461 l17 206 -501 0 -502 0 -6 -377z"/>
<path d="M33889 6303 c-141 -291 -1248 -2382 -1406 -2655 -62 -109 -116 -205
-119 -213 -5 -13 61 -15 583 -15 l589 0 102 228 c56 125 144 315 195 422 l93
195 516 3 516 2 52 -147 c73 -209 124 -366 171 -528 22 -77 42 -148 45 -157 5
-17 41 -18 576 -18 452 0 569 3 565 13 -3 6 -36 91 -75 187 -119 297 -731
1959 -904 2452 l-163 468 -610 0 -610 0 -116 -237z m861 -1260 c0 -10 -56 -13
-245 -13 -135 0 -245 3 -245 6 0 4 49 108 109 233 60 124 126 262 146 306 l37
80 99 -300 c54 -165 99 -306 99 -312z"/>
<path d="M37154 6127 c-2 -613 -30 -1231 -104 -2332 -11 -159 -22 -309 -25
-332 l-5 -43 560 0 560 0 0 253 c0 682 45 1813 100 2540 11 142 20 273 20 292
l0 35 -552 0 -553 0 -1 -413z"/>
<path d="M21655 6343 c-99 -24 -301 -68 -450 -99 -148 -30 -277 -57 -286 -60
-13 -4 -17 -28 -23 -137 -3 -72 -9 -169 -13 -214 l-6 -83 -183 0 c-182 0 -184
0 -188 -22 -3 -13 -8 -126 -11 -253 -4 -126 -10 -277 -15 -335 -4 -58 -5 -108
-3 -112 2 -5 80 -8 173 -8 l169 0 -5 -47 c-15 -147 -54 -848 -54 -964 0 -224
40 -340 160 -459 114 -113 242 -161 492 -182 105 -8 175 -8 289 0 160 13 457
66 475 85 6 7 30 120 53 252 24 132 55 300 71 373 24 116 26 132 11 128 -103
-33 -262 -68 -327 -73 -68 -5 -87 -3 -126 15 -101 45 -109 121 -72 760 l6 112
253 0 252 0 7 263 c3 144 9 308 13 365 l6 102 -252 0 -251 0 0 89 c0 49 5 191
11 316 6 125 9 228 7 229 -2 1 -84 -17 -183 -41z"/>
<path d="M24245 5834 c-508 -59 -874 -264 -1086 -608 -215 -350 -234 -846 -46
-1221 78 -157 233 -328 382 -420 150 -94 353 -165 571 -201 157 -26 448 -24
604 4 328 59 535 157 721 342 191 189 290 372 339 630 57 295 24 583 -95 825
-173 354 -522 577 -1002 640 -102 13 -307 18 -388 9z m290 -785 c153 -57 240
-239 220 -461 -25 -292 -164 -463 -387 -476 -173 -10 -308 84 -361 252 -28 91
-30 267 -3 366 45 172 116 263 245 317 77 31 206 32 286 2z"/>
<path d="M27585 5834 c-109 -12 -258 -38 -333 -60 -218 -63 -427 -218 -554
-411 -167 -252 -249 -603 -219 -935 35 -399 162 -654 422 -848 140 -104 302
-168 514 -202 116 -18 461 -15 615 6 109 14 370 63 378 70 2 3 115 686 127
769 3 26 4 47 1 47 -2 0 -46 -16 -97 -35 -278 -106 -560 -133 -729 -69 -143
54 -210 152 -232 339 -27 226 60 428 219 508 95 49 163 60 328 54 130 -4 168
-10 285 -40 74 -19 168 -47 208 -62 41 -15 75 -25 76 -23 2 2 -1 48 -5 103 -4
55 -15 231 -24 390 -11 188 -21 294 -28 302 -14 13 -217 57 -367 78 -101 15
-501 28 -585 19z"/>
<path d="M14110 5775 c0 -3 99 -295 219 -648 258 -757 561 -1676 561 -1702 0
-32 -68 -159 -119 -222 -137 -167 -370 -173 -700 -17 -52 24 -95 43 -97 41 -2
-2 5 -51 16 -110 11 -59 35 -225 55 -370 19 -144 37 -276 40 -293 5 -31 6 -31
113 -52 407 -80 747 -64 1017 49 200 83 360 240 473 465 17 34 209 473 425
975 217 503 483 1114 592 1359 109 245 206 464 216 488 l18 42 -495 -2 -496
-3 -115 -295 c-110 -284 -296 -797 -344 -948 -13 -39 -26 -69 -30 -65 -3 5
-21 72 -38 150 -17 78 -80 323 -140 545 -59 222 -121 451 -136 511 l-28 107
-504 0 c-276 0 -503 -2 -503 -5z"/>
<path d="M5087 4294 c-24 -30 -31 -33 -44 -22 -18 15 -4 30 -195 -217 -73 -93
-184 -237 -248 -318 -127 -164 -161 -208 -268 -350 -40 -53 -77 -99 -82 -102
-6 -4 -10 -90 -10 -222 l0 -215 573 7 c314 4 575 9 580 12 4 2 7 12 7 23 0 20
19 30 58 30 l27 0 -2 577 -1 576 -29 22 c-29 23 -100 73 -193 137 -30 20 -74
51 -98 68 -23 16 -44 30 -45 30 -1 0 -15 -16 -30 -36z"/>
<path d="M7185 3983 c-37 -44 -40 -45 -45 -24 l-5 22 -26 -28 c-14 -15 -63
-77 -110 -138 -132 -172 -141 -184 -189 -244 -25 -32 -74 -96 -109 -142 -35
-46 -71 -90 -80 -97 -23 -19 -78 -6 -126 29 -39 29 -111 80 -230 164 -32 22
-87 61 -124 88 l-66 47 -3 -50 c-2 -27 -6 -50 -10 -50 -4 0 -18 9 -32 20 -51
40 -50 47 -48 -342 l3 -363 560 3 c308 2 568 6 577 8 9 3 18 15 20 27 2 18 10
23 46 25 l42 3 0 545 c0 299 -1 544 -3 544 -1 0 -20 -21 -42 -47z"/>
<path d="M3056 3660 c-18 -19 -35 -29 -45 -25 -20 6 -46 -20 -124 -125 -31
-41 -79 -104 -107 -140 -47 -59 -109 -141 -235 -304 -44 -58 -45 -61 -45 -134
l0 -74 573 7 c314 4 575 9 580 12 4 2 7 13 7 24 0 16 7 19 40 19 l40 0 0 163
0 162 -48 32 c-26 17 -96 66 -157 108 -60 42 -146 101 -190 131 -44 30 -118
82 -165 114 -47 33 -87 60 -90 60 -3 0 -18 -14 -34 -30z"/>
</g>
</svg>
